<mxfile host="65bd71144e">
    <diagram id="5O9TxGf6lZ7DpOSCFHeG" name="Page-1">
        <mxGraphModel dx="1016" dy="860" grid="1" gridSize="10" guides="1" tooltips="1" connect="1" arrows="1" fold="1" page="1" pageScale="1" pageWidth="850" pageHeight="1100" math="0" shadow="0">
            <root>
                <mxCell id="0"/>
                <mxCell id="1" parent="0"/>
                <mxCell id="2" value="" style="rounded=0;whiteSpace=wrap;html=1;" vertex="1" parent="1">
                    <mxGeometry x="150" y="210" width="450" height="30" as="geometry"/>
                </mxCell>
                <mxCell id="3" value="Header" style="rounded=0;whiteSpace=wrap;html=1;" vertex="1" parent="1">
                    <mxGeometry x="150" y="210" width="80" height="30" as="geometry"/>
                </mxCell>
                <mxCell id="4" value="a" style="rounded=0;whiteSpace=wrap;html=1;" vertex="1" parent="1">
                    <mxGeometry x="230" y="210" width="40" height="30" as="geometry"/>
                </mxCell>
                <mxCell id="5" value="b" style="rounded=0;whiteSpace=wrap;html=1;" vertex="1" parent="1">
                    <mxGeometry x="270" y="210" width="40" height="30" as="geometry"/>
                </mxCell>
                <mxCell id="6" value="c" style="rounded=0;whiteSpace=wrap;html=1;" vertex="1" parent="1">
                    <mxGeometry x="310" y="210" width="40" height="30" as="geometry"/>
                </mxCell>
                <mxCell id="7" value="d" style="rounded=0;whiteSpace=wrap;html=1;" vertex="1" parent="1">
                    <mxGeometry x="350" y="210" width="80" height="30" as="geometry"/>
                </mxCell>
                <mxCell id="8" value="e" style="rounded=0;whiteSpace=wrap;html=1;" vertex="1" parent="1">
                    <mxGeometry x="425" y="210" width="40" height="30" as="geometry"/>
                </mxCell>
            </root>
        </mxGraphModel>
    </diagram>
</mxfile>